<svg width="24" height="21" viewBox="0 0 24 21" fill="none" xmlns="http://www.w3.org/2000/svg">
<path d="M0.439466 9.44062C-0.146472 10.0266 -0.146472 10.9781 0.439465 11.5641L6.43946 17.5641C7.0254 18.15 7.97697 18.15 8.5629 17.5641C9.14884 16.9781 9.14884 16.0266 8.5629 15.4406L5.12228 12L14.9988 12C15.8285 12 16.4988 11.3297 16.4988 10.5C16.4988 9.67031 15.8285 9 14.9988 9L5.12228 9L8.5629 5.55937C9.14884 4.97344 9.14884 4.02187 8.5629 3.43593C7.97697 2.85 7.0254 2.85 6.43947 3.43593L0.439466 9.43593L0.439466 9.44062ZM16.4988 18C15.6692 18 14.9988 18.6703 14.9988 19.5C14.9988 20.3297 15.6692 21 16.4988 21L19.4988 21C21.9832 21 23.9988 18.9844 23.9988 16.5L23.9988 4.5C23.9988 2.01562 21.9832 -1.76212e-07 19.4988 -3.93402e-07L16.4988 -6.55671e-07C15.6692 -7.28204e-07 14.9988 0.670312 14.9988 1.5C14.9988 2.32969 15.6692 3 16.4988 3L19.4988 3C20.3285 3 20.9988 3.67031 20.9988 4.5L20.9988 16.5C20.9988 17.3297 20.3285 18 19.4988 18L16.4988 18Z" fill="white"/>
</svg>
