<svg width="118" height="118" viewBox="0 0 118 118" fill="none" xmlns="http://www.w3.org/2000/svg">
<path d="M59 0C26.431 0 0 26.431 0 59C0 91.5689 26.431 118 59 118C91.5689 118 118 91.5689 118 59C118 26.431 91.5689 0 59 0ZM82.9569 86.8109C81.9577 86.8109 81.3391 86.5016 80.4113 85.9544C65.5661 77.0093 48.2944 76.6286 31.2367 80.1258C30.3089 80.3637 29.0956 80.7444 28.4056 80.7444C26.098 80.7444 24.6468 78.9125 24.6468 76.9855C24.6468 74.5351 26.098 73.3694 27.8823 72.9887C47.3665 68.6827 67.279 69.0633 84.2653 79.2218C85.7165 80.1496 86.573 80.9823 86.573 83.1472C86.573 85.3121 84.8839 86.8109 82.9569 86.8109ZM89.3565 71.2044C88.1194 71.2044 87.2867 70.6573 86.4302 70.2052C71.5613 61.4028 49.3887 57.8581 29.6665 63.2109C28.5246 63.5202 27.906 63.8294 26.8355 63.8294C24.2899 63.8294 22.2202 61.7597 22.2202 59.2141C22.2202 56.6685 23.4573 54.9794 25.9077 54.2895C32.5214 52.4339 39.2778 51.054 49.1746 51.054C64.6145 51.054 79.531 54.8843 91.2835 61.8786C93.2105 63.0206 93.9718 64.4956 93.9718 66.5653C93.948 69.1347 91.9496 71.2044 89.3565 71.2044ZM96.7315 53.0762C95.4944 53.0762 94.7331 52.7669 93.6625 52.1484C76.7238 42.0375 46.4387 39.6109 26.8355 45.0827C25.979 45.3206 24.9085 45.7012 23.7665 45.7012C20.6262 45.7012 18.2234 43.2508 18.2234 40.0867C18.2234 36.8512 20.2218 35.0194 22.3629 34.4008C30.7371 31.9504 40.1105 30.7847 50.3165 30.7847C67.6835 30.7847 85.8831 34.4008 99.1819 42.1565C101.037 43.227 102.251 44.702 102.251 47.5331C102.251 50.7685 99.6339 53.0762 96.7315 53.0762Z" fill="#5AB663"/>
</svg>
